<svg width="30" height="30" viewBox="0 0 30 30" fill="none" xmlns="http://www.w3.org/2000/svg">
<path d="M14.8609 29.9445C23.0676 29.9445 29.7333 23.2429 29.7333 14.978C29.7333 6.71308 23.0676 0 14.8609 0C6.65433 0 0 6.71308 0 14.978C0 23.2429 6.65433 29.9445 14.8609 29.9445ZM14.8609 27.8064C7.81856 27.8064 2.12299 22.0704 2.12299 14.978C2.12299 7.88558 7.81856 2.14957 14.8609 2.14957C21.9034 2.14957 27.5988 7.88558 27.5988 14.978C27.5988 22.0704 21.9034 27.8064 14.8609 27.8064Z" fill="black" fill-opacity="0.85"/>
<path d="M12.2472 23.2084H18.2623C18.7874 23.2084 19.1982 22.8176 19.1982 22.3003C19.1982 21.7945 18.7874 21.3922 18.2623 21.3922H16.2534V13.3572C16.2534 12.6905 15.911 12.2307 15.2718 12.2307H12.464C11.939 12.2307 11.5281 12.6215 11.5281 13.1273C11.5281 13.6446 11.939 14.0354 12.464 14.0354H14.256V21.3922H12.2472C11.7221 21.3922 11.3226 21.7945 11.3226 22.3003C11.3226 22.8176 11.7221 23.2084 12.2472 23.2084ZM14.7582 9.60983C15.7284 9.60983 16.4817 8.82817 16.4817 7.87409C16.4817 6.89701 15.7284 6.11536 14.7582 6.11536C13.7995 6.11536 13.0347 6.89701 13.0347 7.87409C13.0347 8.82817 13.7995 9.60983 14.7582 9.60983Z" fill="black" fill-opacity="0.85"/>
</svg>
