<svg width="39" height="31" viewBox="0 0 39 31" fill="none" xmlns="http://www.w3.org/2000/svg">
<path d="M30.3118 6.06336V7.06319H28.4071V6.07412C28.4071 3.39721 26.9761 1.91362 24.2322 1.91362H6.07957C3.3034 1.91362 1.90457 3.39721 1.90457 6.07412V17.0183C1.90457 19.6952 3.3034 21.1788 6.07957 21.1788H7.75818C8.4038 21.1788 8.65128 21.426 8.65128 22.0817V26.1241L13.1814 21.7808C13.5701 21.3748 13.8791 21.2296 14.3528 21.1909C14.3946 21.8954 14.5199 22.5278 14.7279 23.0842L9.87795 27.3604C9.17854 27.9731 8.76964 28.2849 8.17783 28.2849C7.34928 28.2849 6.87584 27.7045 6.87584 26.7798V23.0815H6.06882C2.16282 23.0815 0 20.8778 0 17.029V6.06336C0 2.21464 2.16282 0 6.06882 0H24.243C28.1383 0 30.3118 2.22538 30.3118 6.06336Z" fill="black"/>
<path d="M19.9281 26.1667H25.2222L29.7523 30.0477C30.4518 30.6497 30.8498 30.9614 31.4201 30.9614C32.2271 30.9614 32.7007 30.381 32.7007 29.4887V26.1667H33.174C36.8326 26.1667 38.7695 24.1995 38.7695 20.5871V12.6532C38.7695 9.04094 36.8326 7.06284 33.174 7.06284H19.9281C16.2696 7.06284 14.3328 9.04094 14.3328 12.6532V20.6086C14.3328 24.21 16.2696 26.1667 19.9281 26.1667ZM19.9819 24.264C17.3887 24.264 16.2481 23.0491 16.2481 20.5441V12.7069C16.2481 10.2128 17.3887 8.96568 19.9819 8.96568H33.1202C35.7136 8.96568 36.854 10.2128 36.854 12.7069V20.5334C36.854 23.0275 35.7028 24.264 33.1202 24.264H31.8291C31.3125 24.264 30.9035 24.5649 30.9035 25.2314V28.7899L26.4166 24.7798C25.9862 24.393 25.6525 24.264 25.136 24.264H19.9819Z" fill="black"/>
</svg>
