<svg width="23" height="32" viewBox="0 0 23 32" fill="none" xmlns="http://www.w3.org/2000/svg">
<path d="M21.121 14.5292V23.805C21.121 27.0191 19.3469 28.814 16.1442 28.814H4.97679C1.77409 28.814 0 27.0191 0 23.805V14.5292C0 11.3151 1.77409 9.52008 4.97679 9.52008H7.63792V11.1929H4.96746C2.84789 11.1929 1.65271 12.3865 1.65271 14.5198V23.805C1.65271 25.9476 2.84789 27.1505 4.96746 27.1505H16.1442C18.2731 27.1505 19.4684 25.9476 19.4684 23.805V14.5198C19.4684 12.3865 18.2731 11.1929 16.1442 11.1929H13.4831V9.52008H16.1442C19.3469 9.52008 21.121 11.3151 21.121 14.5292Z" fill="black" fill-opacity="0.85"/>
<path d="M11.3095 4.20759L11.3823 6.00527V18.6173C11.3823 19.059 10.9994 19.4256 10.5606 19.4256C10.1217 19.4256 9.73889 19.059 9.73889 18.6173V6.00527L9.81169 4.20759L10.5606 3.41144L11.3095 4.20759Z" fill="black" fill-opacity="0.85"/>
<path d="M6.46142 7.39623C6.6575 7.39623 6.88158 7.31165 7.03099 7.14249L9.06652 4.99977L10.5605 3.41151L12.0545 4.99977L14.0807 7.14249C14.2301 7.31165 14.4448 7.39623 14.6409 7.39623C15.0704 7.39623 15.3972 7.0861 15.3972 6.66319C15.3972 6.44704 15.3038 6.27788 15.1544 6.11811L11.1581 2.20857C10.9527 2.00182 10.7659 1.93604 10.5605 1.93604C10.3551 1.93604 10.1683 2.00182 9.9629 2.20857L5.96654 6.11811C5.8078 6.27788 5.72375 6.44704 5.72375 6.66319C5.72375 7.0861 6.0319 7.39623 6.46142 7.39623Z" fill="black" fill-opacity="0.85"/>
</svg>
